<svg width="36" height="36" viewBox="0 0 36 36" fill="none" xmlns="http://www.w3.org/2000/svg">
<g id="3" clip-path="url(#clip0_204_434)">
<circle id="Ellipse 30" cx="17.5" cy="17.5" r="13.5" fill="white"/>
<path id="Vector" d="M22.1313 10.3729H13.8686C13.4095 10.3729 12.9549 10.4633 12.5308 10.6389C12.1067 10.8146 11.7213 11.0721 11.3967 11.3967C11.0721 11.7214 10.8146 12.1067 10.6389 12.5309C10.4632 12.955 10.3728 13.4096 10.3728 13.8687V22.1314C10.3728 23.0585 10.7411 23.9477 11.3967 24.6033C11.7213 24.9279 12.1067 25.1854 12.5308 25.3611C12.9549 25.5367 13.4095 25.6272 13.8686 25.6272H22.1313C23.0584 25.6271 23.9476 25.2588 24.6032 24.6032C25.2587 23.9477 25.627 23.0585 25.627 22.1314V13.8687C25.627 13.4096 25.5366 12.955 25.361 12.5309C25.1853 12.1068 24.9278 11.7214 24.6032 11.3968C24.2786 11.0721 23.8932 10.8146 23.4691 10.639C23.045 10.4633 22.5904 10.3729 22.1313 10.3729ZM18 22.8088C17.0489 22.8088 16.1192 22.5267 15.3284 21.9983C14.5376 21.4699 13.9212 20.7189 13.5573 19.8402C13.1933 18.9616 13.0981 17.9947 13.2836 17.0619C13.4692 16.1291 13.9271 15.2722 14.5997 14.5997C15.2722 13.9272 16.129 13.4692 17.0618 13.2837C17.9946 13.0981 18.9615 13.1934 19.8402 13.5573C20.7189 13.9213 21.4699 14.5376 21.9983 15.3284C22.5267 16.1192 22.8087 17.0489 22.8087 18C22.8087 18.6315 22.6843 19.2568 22.4427 19.8402C22.201 20.4237 21.8468 20.9538 21.4002 21.4003C20.9537 21.8468 20.4236 22.201 19.8402 22.4427C19.2568 22.6844 18.6314 22.8088 18 22.8088ZM23.0092 14.1736C22.7829 14.1736 22.5617 14.1065 22.3735 13.9808C22.1854 13.8551 22.0387 13.6765 21.9521 13.4674C21.8655 13.2584 21.8429 13.0283 21.887 12.8064C21.9311 12.5845 22.0401 12.3806 22.2001 12.2206C22.3601 12.0606 22.5639 11.9516 22.7859 11.9075C23.0078 11.8633 23.2378 11.886 23.4469 11.9726C23.6559 12.0592 23.8346 12.2058 23.9603 12.3939C24.086 12.5821 24.1531 12.8033 24.1531 13.0296C24.1531 13.333 24.0326 13.6239 23.8181 13.8385C23.6035 14.053 23.3126 14.1736 23.0092 14.1736Z" fill="url(#paint0_linear_204_434)"/>
<path id="Vector_2" d="M18 14.8743C17.3818 14.8743 16.7775 15.0576 16.2634 15.4011C15.7494 15.7445 15.3488 16.2327 15.1122 16.8038C14.8756 17.375 14.8137 18.0035 14.9343 18.6098C15.0549 19.2161 15.3526 19.7731 15.7898 20.2102C16.2269 20.6474 16.7839 20.9451 17.3902 21.0657C17.9965 21.1863 18.625 21.1244 19.1962 20.8878C19.7673 20.6512 20.2555 20.2506 20.599 19.7366C20.9424 19.2226 21.1258 18.6182 21.1258 18C21.1258 17.171 20.7964 16.376 20.2102 15.7898C19.6241 15.2036 18.829 14.8743 18 14.8743Z" fill="url(#paint1_linear_204_434)"/>
<path id="Vector_3" d="M18 0C8.05887 0 0 8.05887 0 18C0 27.9411 8.05887 36 18 36C27.9411 36 36 27.9411 36 18C36 8.05887 27.9411 0 18 0ZM27.375 21.9727C27.3749 23.4054 26.8057 24.7795 25.7926 25.7926C24.7795 26.8057 23.4054 27.3749 21.9727 27.375H14.0273C12.5946 27.3749 11.2205 26.8057 10.2074 25.7926C9.19423 24.7795 8.62503 23.4054 8.62495 21.9727V14.0273C8.62501 12.5946 9.19421 11.2205 10.2073 10.2074C11.2205 9.19424 12.5946 8.62506 14.0273 8.62502H21.9727C23.4054 8.62508 24.7795 9.19427 25.7926 10.2074C26.8057 11.2205 27.3749 12.5946 27.375 14.0273V21.9727Z" fill="url(#paint2_linear_204_434)"/>
</g>
<defs>
<linearGradient id="paint0_linear_204_434" x1="0.562451" y1="35.4375" x2="35.6009" y2="0.399037" gradientUnits="userSpaceOnUse">
<stop stop-color="#FFCB52"/>
<stop offset="0.318" stop-color="#FF6341"/>
<stop offset="0.658" stop-color="#CD39A2"/>
<stop offset="1" stop-color="#515BCA"/>
</linearGradient>
<linearGradient id="paint1_linear_204_434" x1="0.562514" y1="35.4375" x2="35.601" y2="0.399039" gradientUnits="userSpaceOnUse">
<stop stop-color="#FFCB52"/>
<stop offset="0.318" stop-color="#FF6341"/>
<stop offset="0.658" stop-color="#CD39A2"/>
<stop offset="1" stop-color="#515BCA"/>
</linearGradient>
<linearGradient id="paint2_linear_204_434" x1="0.5625" y1="35.4375" x2="35.601" y2="0.399024" gradientUnits="userSpaceOnUse">
<stop stop-color="#FFCB52"/>
<stop offset="0.318" stop-color="#FF6341"/>
<stop offset="0.658" stop-color="#CD39A2"/>
<stop offset="1" stop-color="#515BCA"/>
</linearGradient>
<clipPath id="clip0_204_434">
<rect width="36" height="36" fill="white"/>
</clipPath>
</defs>
</svg>
