<svg width="36" height="36" viewBox="0 0 36 36" fill="none" xmlns="http://www.w3.org/2000/svg">
<path d="M17.9982 36.0011C27.9393 36.0011 35.9982 27.9422 35.9982 18.0011C35.9982 8.05997 27.9393 0.00109863 17.9982 0.00109863C8.05704 0.00109863 -0.00183105 8.05997 -0.00183105 18.0011C-0.00183105 27.9422 8.05704 36.0011 17.9982 36.0011Z" fill="url(#paint0_linear_56_52)"/>
<path d="M28.7534 19.4498V26.8708H24.4509V19.9472C24.4509 18.2087 23.8297 17.0215 22.2719 17.0215C21.0831 17.0215 20.3769 17.8208 20.065 18.5947C19.9517 18.8713 19.9225 19.2554 19.9225 19.6433V26.8705H15.6197C15.6197 26.8705 15.6775 15.1441 15.6197 13.9303H19.9228V15.764C19.9142 15.7785 19.902 15.7926 19.8943 15.8064H19.9228V15.764C20.4946 14.8842 21.5143 13.6264 23.8005 13.6264C26.6312 13.6264 28.7534 15.4759 28.7534 19.4498ZM11.1186 7.69263C9.64676 7.69263 8.68384 8.65876 8.68384 9.92811C8.68384 11.1705 9.61884 12.1646 11.0621 12.1646H11.09C12.5907 12.1646 13.5238 11.1705 13.5238 9.92811C13.4952 8.65876 12.5907 7.69263 11.1186 7.69263ZM8.93957 26.8708H13.2408V13.9303H8.93957V26.8708Z" fill="white"/>
<defs>
<linearGradient id="paint0_linear_56_52" x1="17.9982" y1="0.00109863" x2="17.9982" y2="36.0011" gradientUnits="userSpaceOnUse">
<stop stop-color="#247EDC"/>
<stop offset="1" stop-color="#0B65C3"/>
</linearGradient>
</defs>
</svg>
