<svg width="23" height="22" viewBox="0 0 23 22" fill="none" xmlns="http://www.w3.org/2000/svg">
<g id="Frame 24">
<path id="Vector" d="M22.6818 17.1C22.6591 17.8917 22.4132 18.661 21.9723 19.319C21.5314 19.9771 20.9135 20.4971 20.1899 20.8192C19.4387 21.2297 18.6074 21.4722 17.7533 21.53C16.8993 21.5878 16.0429 21.4595 15.2432 21.154C13.7119 20.5986 12.2098 19.9655 10.7429 19.2571C8.84785 18.2532 7.15746 16.9034 5.75908 15.2775C4.17254 13.5325 2.81062 11.5959 1.70507 9.51264C0.875832 8.06891 0.487919 6.41381 0.589293 4.75197C0.665772 3.89387 0.924261 3.06192 1.34754 2.31156C1.77081 1.56121 2.34915 0.909691 3.04401 0.400418C3.36446 0.183511 3.73657 0.0552001 4.1226 0.0284924C4.59294 -0.00949746 5.06559 -0.00949746 5.53593 0.0284924C5.70792 0.0502612 5.86985 0.121645 6.00195 0.233926C6.13405 0.346208 6.23059 0.494527 6.27978 0.660769C6.65171 1.5162 6.94925 2.37163 7.28398 3.26426C7.61872 4.15689 7.69311 4.45443 7.95345 5.01232C8.18232 5.31971 8.2932 5.69908 8.26589 6.08135C8.23859 6.46361 8.07492 6.82337 7.80468 7.09511C7.44662 7.56285 7.04838 7.99842 6.61452 8.39686C6.4558 8.52195 6.34898 8.70134 6.31465 8.90048C6.28031 9.09963 6.32089 9.30444 6.42855 9.47545C7.4355 11.3042 8.77214 12.9309 10.371 14.2733C11.5171 15.1329 12.7666 15.8451 14.0903 16.3933C14.2274 16.5188 14.4065 16.5883 14.5924 16.5883C14.7782 16.5883 14.9573 16.5188 15.0945 16.3933L16.9541 14.2733C17.3632 13.827 17.5492 13.7154 18.0699 13.9758L22.6446 16.3561C22.7065 16.4693 22.742 16.595 22.7484 16.7238C22.7548 16.8526 22.7321 16.9812 22.6818 17.1Z" fill="white"/>
</g>
</svg>
