<svg width="58" height="58" viewBox="0 0 58 58" fill="none" xmlns="http://www.w3.org/2000/svg">
<g id="free-icon-quote-7350737 1">
<path id="Vector" d="M46.6416 8.65836C49.0583 11.3167 50.5083 14.2167 50.5083 19.05C50.5083 27.5084 44.4666 35 36.0083 38.8667L33.8333 35.725C41.8083 31.375 43.5 25.8167 43.9833 22.1917C42.775 22.9167 41.0833 23.1584 39.3916 22.9167C35.0416 22.4334 31.6583 19.05 31.6583 14.4584C31.6583 12.2834 32.625 10.1084 34.075 8.4167C35.7666 6.72503 37.7 6.00003 40.1166 6.00003C42.775 6.00003 45.1916 7.20836 46.6416 8.65836ZM22.475 8.65836C24.8916 11.3167 26.3416 14.2167 26.3416 19.05C26.3416 27.5084 20.3 35 11.8416 38.8667L9.66663 35.725C17.6416 31.375 19.3333 25.8167 19.8166 22.1917C18.6083 22.9167 16.9166 23.1584 15.225 22.9167C10.875 22.4334 7.49163 19.05 7.49163 14.4584C7.49163 12.2834 8.4583 10.1084 9.9083 8.4167C11.3583 6.72503 13.5333 6.00003 15.95 6.00003C18.6083 6.00003 21.025 7.20836 22.475 8.65836Z" fill="url(#paint0_linear_125_687)"/>
</g>
<defs>
<linearGradient id="paint0_linear_125_687" x1="-0.500003" y1="30.5" x2="-13.5028" y2="2.08247" gradientUnits="userSpaceOnUse">
<stop stop-color="#50CBFF"/>
<stop offset="0.473958" stop-color="#BBEBFF"/>
<stop offset="0.98623" stop-color="#97E0FE"/>
</linearGradient>
</defs>
</svg>
