<svg width="36" height="36" viewBox="0 0 36 36" fill="none" xmlns="http://www.w3.org/2000/svg">
<g clip-path="url(#clip0_56_40)">
<path fill-rule="evenodd" clip-rule="evenodd" d="M0.00012207 18.0001C0.00012207 8.05902 8.05902 0.00012207 18.0001 0.00012207C27.9412 0.00012207 36.0001 8.05902 36.0001 18.0001C36.0001 27.9412 27.9412 36.0001 18.0001 36.0001C8.05902 36.0001 0.00012207 27.9412 0.00012207 18.0001Z" fill="url(#paint0_linear_56_40)"/>
<g clip-path="url(#clip1_56_40)">
<path fill-rule="evenodd" clip-rule="evenodd" d="M16.2996 16.1977V15.5133C16.0621 15.4797 15.8226 15.4622 15.5827 15.4611C12.6492 15.4611 10.2626 17.8481 10.2626 20.7816C10.2626 22.5811 11.1619 24.1741 12.5339 25.1373C11.6152 24.1549 11.1045 22.86 11.1053 21.515C11.1053 18.6232 13.424 16.2652 16.2996 16.1977Z" fill="#00F2EA"/>
<path fill-rule="evenodd" clip-rule="evenodd" d="M16.425 23.9446C17.7339 23.9446 18.8016 22.9034 18.8502 21.6058L18.8547 10.0223H20.9708C20.9256 9.78047 20.9028 9.53498 20.9025 9.28894H18.0124L18.0076 20.8728C17.9593 22.17 16.8912 23.2108 15.5828 23.2108C15.1899 23.2109 14.803 23.1152 14.4556 22.9319C14.6799 23.2449 14.9755 23.5 15.318 23.6761C15.6605 23.8522 16.04 23.9442 16.425 23.9446ZM24.9239 13.9541V13.3103C24.1462 13.311 23.3852 13.0848 22.7342 12.6593C23.3049 13.3165 24.0734 13.7708 24.9243 13.9541" fill="#00F2EA"/>
<path fill-rule="evenodd" clip-rule="evenodd" d="M22.734 12.6589C22.096 11.9289 21.7446 10.9922 21.745 10.0227H20.9707C21.0709 10.5586 21.2789 11.0685 21.582 11.5216C21.8851 11.9747 22.277 12.3616 22.734 12.6589ZM15.5826 18.3515C14.9384 18.3523 14.3209 18.6085 13.8654 19.064C13.4099 19.5195 13.1537 20.137 13.153 20.7811C13.1534 21.2242 13.2749 21.6588 13.5044 22.0379C13.7339 22.4169 14.0626 22.7261 14.455 22.9319C14.1562 22.5199 13.9953 22.0239 13.9953 21.515C13.9959 20.8707 14.2521 20.2531 14.7075 19.7975C15.163 19.342 15.7807 19.0857 16.4249 19.0849C16.6752 19.0849 16.9151 19.1263 17.1418 19.1975V16.2466C16.9043 16.213 16.6647 16.1955 16.4249 16.1944C16.3827 16.1944 16.3413 16.1968 16.2995 16.1976V18.4641C16.0676 18.3903 15.8259 18.3523 15.5826 18.3515Z" fill="#FF004F"/>
<path fill-rule="evenodd" clip-rule="evenodd" d="M24.9241 13.954V16.2004C23.4251 16.2004 22.0367 15.721 20.9027 14.9072V20.7812C20.9027 23.7147 18.5165 26.1013 15.5829 26.1013C14.4493 26.1013 13.3981 25.7436 12.5341 25.1369C13.0308 25.6725 13.6328 26.0998 14.3024 26.392C14.972 26.6841 15.6947 26.8348 16.4252 26.8347C19.3588 26.8347 21.7454 24.4481 21.7454 21.5149V15.641C22.9169 16.4834 24.3238 16.9358 25.7667 16.9342V14.0432C25.4774 14.0432 25.1961 14.0119 24.9241 13.9536" fill="#FF004F"/>
<path fill-rule="evenodd" clip-rule="evenodd" d="M20.9027 20.7811V14.9073C22.0742 15.7497 23.4811 16.2022 24.9241 16.2004V13.954C24.0733 13.7705 23.3049 13.3161 22.7343 12.6589C22.2774 12.3616 21.8854 11.9747 21.5823 11.5216C21.2793 11.0685 21.0713 10.5586 20.971 10.0227H18.8548L18.8504 21.6062C18.8018 22.9033 17.7341 23.9446 16.4252 23.9446C16.0401 23.9442 15.6607 23.8521 15.3182 23.676C14.9758 23.4999 14.6801 23.2449 14.4557 22.9319C14.0633 22.7261 13.7345 22.417 13.5049 22.038C13.2753 21.6589 13.1538 21.2243 13.1533 20.7811C13.1541 20.137 13.4103 19.5195 13.8658 19.064C14.3212 18.6085 14.9388 18.3523 15.5829 18.3515C15.8329 18.3515 16.0728 18.3925 16.2998 18.4641V16.1976C13.4242 16.2651 11.1055 18.6232 11.1055 21.515C11.1055 22.9134 11.6488 24.1865 12.5341 25.1372C13.4265 25.7655 14.4915 26.1023 15.5829 26.1013C18.5165 26.1013 20.9027 23.7147 20.9027 20.7811Z" fill="white"/>
</g>
</g>
<defs>
<linearGradient id="paint0_linear_56_40" x1="18.0001" y1="0.00012207" x2="18.0001" y2="36.0001" gradientUnits="userSpaceOnUse">
<stop/>
<stop offset="0.0001" stop-color="#2B2B2B"/>
<stop offset="1"/>
</linearGradient>
<clipPath id="clip0_56_40">
<rect width="36" height="36" fill="white"/>
</clipPath>
<clipPath id="clip1_56_40">
<rect width="17.5458" height="17.5458" fill="white" transform="translate(9.16602 9.28894)"/>
</clipPath>
</defs>
</svg>
