<svg width="37" height="38" viewBox="0 0 37 38" fill="none" xmlns="http://www.w3.org/2000/svg">
<g id="Frame 23">
<path id="Vector" d="M0 37.2727L1.49077 32.8314C1.9877 31.4027 2.39145 29.943 2.95049 28.5454C3.10312 28.2474 3.18272 27.9174 3.18272 27.5826C3.18272 27.2478 3.10312 26.9178 2.95049 26.6198C1.18468 23.3598 0.464034 19.6357 0.886264 15.9523C1.30849 12.2689 2.85317 8.8044 5.31088 6.02854C7.09515 3.9946 9.32189 2.3967 11.82 1.3576C14.3182 0.318496 17.0213 -0.134165 19.7217 0.034387C23.8146 0.16945 27.7292 1.74188 30.7783 4.47565C33.6616 6.98526 35.6736 10.3457 36.5239 14.0725C37.2341 17.0862 37.1485 20.2328 36.2755 23.2035C35.2082 26.9365 32.9371 30.2121 29.8155 32.5208C27.7487 34.1304 25.3516 35.2631 22.7958 35.8376C20.24 36.4121 17.5887 36.4143 15.032 35.844C13.4145 35.5187 11.8547 34.9534 10.4044 34.1669C10.2926 34.1143 10.1707 34.087 10.0472 34.087C9.92371 34.087 9.80175 34.1143 9.69003 34.1669L1.36654 36.7757L0 37.2727ZM4.72078 32.5829H5.0003L10.218 30.9369C10.3993 30.8753 10.5958 30.8753 10.777 30.9369C11.5224 31.3096 12.2368 31.7754 13.0132 32.086C16.1075 33.4451 19.5805 33.6759 22.8275 32.7382C24.7373 32.2281 26.5259 31.3417 28.0886 30.1311C29.6512 28.9204 30.9563 27.4099 31.9274 25.6881C33.8544 22.3337 34.423 18.3684 33.516 14.6077C32.609 10.847 30.2955 7.57675 27.0513 5.4695C24.1139 3.56385 20.6054 2.73867 17.1265 3.13528C13.6477 3.5319 10.4149 5.12562 7.98185 7.64354C5.99022 9.6773 4.63092 12.2449 4.06857 15.0353C3.62653 16.9484 3.57754 18.9313 3.92455 20.8639C4.27156 22.7964 5.00735 24.6384 6.08732 26.2782C6.26265 26.5688 6.35532 26.9017 6.35532 27.241C6.35532 27.5803 6.26265 27.9132 6.08732 28.2038C5.68357 29.5703 5.24876 31.0611 4.72078 32.5829Z" fill="white"/>
<path id="Vector_2" d="M28.1388 23.3907C28.1198 24.0519 27.9144 24.6942 27.5463 25.2437C27.1781 25.7932 26.6622 26.2275 26.0579 26.4965C25.4306 26.8393 24.7364 27.0418 24.0233 27.09C23.3101 27.1383 22.5949 27.0311 21.9272 26.776C20.6484 26.3122 19.3942 25.7835 18.1692 25.1921C16.5867 24.3537 15.1752 23.2266 14.0075 21.8689C12.6826 20.4117 11.5454 18.7945 10.6222 17.0549C9.92972 15.8493 9.60579 14.4672 9.69045 13.0795C9.75431 12.363 9.97016 11.6682 10.3236 11.0417C10.6771 10.4151 11.16 9.87103 11.7403 9.44576C12.0078 9.26463 12.3186 9.15748 12.6409 9.13518C13.0337 9.10346 13.4284 9.10346 13.8211 9.13518C13.9648 9.15336 14.1 9.21297 14.2103 9.30673C14.3206 9.40049 14.4012 9.52434 14.4423 9.66316C14.7529 10.3775 15.0013 11.0918 15.2808 11.8372C15.5604 12.5826 15.6225 12.8311 15.8399 13.2969C16.031 13.5536 16.1236 13.8704 16.1008 14.1896C16.078 14.5088 15.9413 14.8092 15.7157 15.0362C15.4166 15.4267 15.0841 15.7905 14.7218 16.1232C14.5893 16.2276 14.5001 16.3774 14.4714 16.5437C14.4427 16.71 14.4766 16.8811 14.5665 17.0239C15.4074 18.551 16.5235 19.9093 17.8586 21.0303C18.8157 21.7481 19.8591 22.3429 20.9644 22.8006C21.0789 22.9054 21.2285 22.9635 21.3837 22.9635C21.5389 22.9635 21.6885 22.9054 21.803 22.8006L23.3559 21.0303C23.6975 20.6576 23.8528 20.5644 24.2876 20.7818L28.1077 22.7695C28.1594 22.864 28.189 22.969 28.1944 23.0766C28.1998 23.1841 28.1807 23.2915 28.1388 23.3907Z" fill="white"/>
</g>
</svg>
