<svg width="36" height="26" viewBox="0 0 36 26" fill="none" xmlns="http://www.w3.org/2000/svg">
<path fill-rule="evenodd" clip-rule="evenodd" d="M33.8943 1.73957C33.1672 1.0618 32.2464 0.617303 31.2393 0.503037C29.0504 0.251453 26.8417 0.124817 24.6256 0.0613252C22.4238 -0.00173083 20.2125 -0.00173075 18.0062 -0.000424337C15.8001 -0.00173074 13.589 -0.00173081 11.3869 0.0613252C9.17055 0.124817 6.96116 0.251452 4.77103 0.503037C3.76492 0.617362 2.8445 1.06206 2.1181 1.74012C1.39631 2.41382 0.865999 3.3186 0.634007 4.35868C0.32082 5.75284 0.162389 7.20745 0.0823535 8.67108C0.00200709 10.1409 0 11.5921 0 13.001C0 14.4079 2.84542e-05 15.8573 0.0784805 17.328C0.156565 18.7909 0.313073 20.2455 0.626429 21.6399C0.859806 22.6804 1.39037 23.5855 2.1121 24.2591C2.83807 24.9368 3.75759 25.3812 4.76341 25.4956C6.95382 25.7471 9.16321 25.8737 11.3795 25.9372C13.5816 26.0003 15.7927 26.0003 17.9991 25.999C20.2065 26.0003 22.4175 26.0003 24.6193 25.9372C26.8353 25.8737 29.0441 25.7471 31.2342 25.4956C32.2399 25.3812 33.1592 24.9369 33.8855 24.2595C34.6076 23.5858 35.1389 22.6807 35.3738 21.6399C35.6857 20.2454 35.8423 18.7909 35.9206 17.328C35.998 15.8853 35.9986 14.4218 35.9985 13.001H36V12.9296H35.9985C35.9986 10.1066 35.9986 7.11671 35.3814 4.35871C35.148 3.31817 34.6168 2.41319 33.8943 1.73957Z" fill="url(#paint0_linear_56_57)"/>
<path fill-rule="evenodd" clip-rule="evenodd" d="M24.8303 12.3045C22.7793 11.2046 20.7421 10.113 18.7073 9.02267C17.0159 8.11634 15.3261 7.21082 13.6313 6.30218L13.0718 6.0022V6.64936V18.6135V19.259L13.6298 18.9622C15.5016 17.9665 17.3655 16.9745 19.2293 15.9823L24.8288 13.0004L25.4806 12.6533L24.8303 12.3045Z" fill="white"/>
<defs>
<linearGradient id="paint0_linear_56_57" x1="18" y1="-0.000732422" x2="18" y2="25.9993" gradientUnits="userSpaceOnUse">
<stop stop-color="#F70000"/>
<stop offset="1" stop-color="#EB0000"/>
</linearGradient>
</defs>
</svg>
